<!DOCTYPE svg PUBLIC "-//W3C//DTD SVG 20010904//EN" "http://www.w3.org/TR/2001/REC-SVG-20010904/DTD/svg10.dtd">
<svg version="1.0" xmlns="http://www.w3.org/2000/svg" width="500px" height="626px" viewBox="0 0 5000 6260" preserveAspectRatio="xMidYMid meet">
<g id="layer101" fill="#636363" stroke="none">
 <path d="M2225 6060 c-22 -4 -74 -10 -115 -13 -138 -11 -278 -46 -531 -132 -173 -59 -508 -207 -529 -234 -3 -3 -23 -15 -45 -27 -174 -91 -373 -231 -424 -298 -46 -59 -83 -138 -100 -211 -7 -33 -23 -744 -48 -2151 -38 -2182 -39 -2157 0 -2196 7 -7 16 -21 20 -30 3 -10 13 -18 21 -18 8 0 16 -4 18 -9 3 -9 157 -84 198 -96 14 -4 68 -25 120 -47 52 -22 136 -55 185 -73 50 -18 113 -42 140 -53 28 -11 109 -43 180 -70 72 -27 189 -73 260 -102 200 -80 304 -116 422 -146 103 -27 118 -28 343 -27 227 0 239 1 365 31 192 46 327 93 461 160 l120 60 54 -14 c67 -17 211 -19 228 -2 7 7 12 27 12 44 l0 33 61 -25 c59 -24 63 -25 103 -9 95 37 250 149 337 241 78 85 154 195 213 310 50 99 56 118 56 172 l0 61 58 -24 c248 -100 301 -111 357 -77 17 10 39 36 50 58 11 21 23 40 27 42 12 5 9 92 -2 92 -5 0 -10 6 -10 14 0 31 -51 64 -175 113 -72 28 -146 57 -165 63 l-35 12 4 90 c3 101 -5 118 -65 138 l-34 12 0 154 c0 147 -1 157 -26 207 -49 95 -175 215 -269 253 l-44 19 5 455 c3 250 14 916 24 1478 17 922 17 1029 3 1075 -31 106 -55 128 -203 185 -133 52 -490 192 -670 265 -96 38 -190 74 -209 79 -19 6 -81 30 -138 54 -129 55 -251 91 -340 99 -37 4 -72 11 -77 16 -12 11 -134 10 -191 -1z m232 -75 c43 -8 104 -24 136 -36 52 -19 56 -23 43 -38 -19 -23 -65 -115 -88 -181 -26 -71 -34 -313 -48 -1450 -5 -459 -13 -990 -17 -1179 l-6 -343 -21 58 c-52 141 -108 235 -196 324 -97 98 -170 142 -288 171 -364 90 -755 -106 -1026 -516 -71 -107 -121 -206 -172 -345 l-43 -115 0 105 c0 58 10 688 23 1400 24 1263 23 1430 -4 1520 -5 19 -10 40 -10 46 0 19 183 145 322 222 237 133 481 232 763 310 94 26 154 37 360 66 48 7 187 -3 272 -19z m301 -101 c29 -14 52 -30 52 -34 0 -5 -20 -26 -46 -47 -51 -43 -99 -113 -109 -160 -4 -21 -13 -33 -23 -33 -9 0 -27 -3 -39 -6 -20 -6 -23 -3 -23 23 0 61 97 283 124 283 7 0 35 -12 64 -26z m159 -153 c10 -39 -66 -4119 -78 -4171 -6 -24 -19 -58 -29 -75 -19 -31 -176 -152 -185 -143 -3 3 4 529 14 1169 11 640 25 1551 31 2024 7 473 15 917 20 988 9 146 21 175 113 258 l51 46 28 -35 c16 -19 31 -47 35 -61z m407 -34 c92 -35 138 -77 153 -136 6 -22 10 -41 9 -41 -5 0 -346 131 -401 153 -56 24 -60 28 -66 64 -3 21 -10 48 -17 60 -7 12 -12 24 -12 27 0 2 57 -18 128 -46 70 -27 162 -64 206 -81z m-358 -984 c-8 -516 -23 -1423 -33 -2015 -14 -885 -19 -1078 -30 -1078 -11 0 -13 38 -8 208 7 249 52 2739 60 3317 6 397 11 522 22 511 3 -2 -2 -427 -11 -943z m156 899 c40 -16 140 -55 222 -87 l149 -59 -6 -181 c-3 -99 -20 -1001 -38 -2005 -17 -1004 -33 -1830 -35 -1837 -2 -9 -22 -5 -71 13 -127 47 -368 146 -376 153 -10 10 4 1109 35 2794 17 963 25 1246 34 1243 7 -3 45 -18 86 -34z m558 -52 c183 -70 264 -103 277 -116 25 -24 53 -80 53 -107 0 -16 -4 -27 -8 -25 -5 2 -74 29 -153 62 -79 32 -179 72 -221 89 -69 27 -78 34 -78 56 -1 14 -7 43 -15 64 -12 35 -12 38 3 32 10 -4 73 -28 142 -55z m-1060 -1760 c-16 -954 -33 -1905 -37 -2113 l-6 -378 -36 -30 c-20 -16 -39 -29 -44 -29 -5 0 -6 86 -3 198 4 108 11 527 16 931 15 1216 52 3165 60 3175 5 4 23 11 42 15 28 6 33 4 36 -13 2 -12 -11 -802 -28 -1756z m1122 1569 c95 -39 195 -78 222 -87 l49 -17 -7 -470 c-10 -725 -64 -3567 -68 -3570 -3 -3 -105 36 -345 133 l-113 44 0 92 c0 50 16 928 35 1951 19 1023 35 1890 35 1928 0 37 4 67 10 67 5 0 87 -32 182 -71z m-3027 -58 c17 -80 20 -191 6 -191 -5 0 -16 -3 -24 -6 -11 -4 -19 6 -27 33 -7 21 -28 57 -46 80 -19 23 -34 45 -34 50 0 12 99 118 105 112 2 -3 11 -38 20 -78z m-97 -156 c15 -26 16 -56 14 -225 -6 -485 -62 -3727 -68 -3918 l-6 -212 -42 23 c-59 32 -68 66 -67 262 3 483 73 3970 81 4027 6 37 15 79 22 93 l12 26 18 -23 c10 -13 26 -36 36 -53z m92 -1390 c-11 -610 -24 -1461 -30 -1890 -5 -429 -12 -853 -16 -943 l-6 -164 -27 7 c-14 4 -26 7 -27 8 -2 5 66 3838 72 4045 6 226 7 234 28 241 20 8 21 6 24 -93 2 -55 -6 -600 -18 -1211z m1270 -507 c36 -12 67 -24 70 -28 3 -4 27 -19 53 -33 46 -24 57 -33 120 -94 42 -42 57 -59 57 -67 0 -4 11 -22 24 -39 60 -80 118 -229 146 -377 17 -88 15 -293 -4 -415 -14 -90 -74 -296 -91 -313 -8 -8 1 35 21 98 44 143 66 292 65 438 -4 402 -203 719 -506 803 -65 18 -254 18 -320 0 -87 -24 -248 -103 -315 -155 -119 -92 -310 -298 -310 -334 0 -5 -3 -12 -8 -14 -16 -7 -111 -187 -140 -268 -126 -347 -134 -659 -26 -928 36 -90 77 -161 101 -175 7 -4 13 -13 13 -18 0 -6 14 -22 30 -36 17 -13 30 -31 30 -39 0 -8 7 -14 15 -14 7 0 18 -6 22 -14 20 -35 158 -101 251 -121 104 -22 185 -19 298 10 213 55 413 197 566 400 60 80 140 215 174 294 16 35 30 59 32 52 2 -6 -19 -57 -47 -112 -190 -370 -408 -569 -746 -680 -53 -17 -235 -17 -305 0 -121 30 -255 119 -340 226 -59 74 -83 122 -125 245 -55 161 -68 245 -62 405 6 171 33 306 94 475 53 147 58 157 131 275 144 233 286 375 482 482 138 76 172 86 315 92 146 7 146 7 235 -21z m-65 -69 c38 -9 174 -68 185 -79 3 -3 19 -16 35 -29 19 -15 22 -21 10 -16 -160 62 -308 115 -320 115 -9 0 -45 -7 -80 -16 -93 -24 -89 -42 21 -88 47 -20 93 -36 102 -36 10 -1 -1 -7 -23 -15 -45 -16 -65 -38 -65 -72 0 -27 42 -141 64 -175 15 -23 14 -26 -30 -69 -95 -92 -208 -248 -273 -377 -19 -38 -37 -62 -44 -59 -7 3 -114 46 -239 96 -251 100 -262 102 -294 39 -46 -89 -97 -315 -78 -346 16 -26 111 -70 317 -147 l187 -70 0 -102 c0 -57 -3 -103 -6 -103 -4 0 -92 34 -197 76 -170 68 -195 76 -235 70 -52 -7 -82 -29 -82 -60 0 -37 40 -178 65 -234 27 -58 59 -89 114 -111 20 -7 60 -24 89 -37 29 -13 57 -24 62 -24 6 0 18 -4 28 -9 9 -5 71 -31 137 -57 123 -49 136 -57 147 -86 6 -14 -3 -18 -56 -23 -35 -4 -77 -4 -92 -1 -16 3 -51 8 -79 11 -104 12 -242 104 -329 219 -105 140 -149 270 -166 490 -13 175 14 366 77 541 36 100 136 286 204 380 162 225 399 381 634 418 40 7 160 -1 210 -14z m77 -125 c90 -37 180 -74 200 -82 33 -14 38 -21 44 -59 7 -47 -1 -93 -16 -93 -6 0 -10 21 -10 48 0 26 -4 53 -9 61 -7 11 -237 108 -406 172 l-50 18 42 1 c30 0 91 -20 205 -66z m75 -161 c-33 -18 -63 -33 -64 -33 -4 0 -37 75 -47 107 -7 22 -6 22 83 -9 l90 -32 -62 -33z m101 -40 c-3 -35 -6 -38 -37 -41 -19 -2 -51 0 -70 3 l-36 7 65 34 c36 18 69 33 73 34 5 0 7 -17 5 -37z m-242 -17 c8 -8 14 -19 14 -23 0 -5 19 -28 42 -51 l41 -42 -29 0 c-39 0 -90 32 -114 72 -24 40 -25 45 -2 51 29 8 33 7 48 -7z m455 -235 c10 -51 19 -103 19 -115 0 -18 -3 -16 -20 11 -35 58 -130 68 -201 20 -47 -31 -97 -119 -105 -185 -7 -56 8 -132 26 -132 6 0 10 -7 10 -15 0 -8 15 -24 33 -36 69 -43 188 1 226 85 26 56 25 29 -4 -116 -45 -227 -124 -397 -279 -602 -68 -89 -194 -202 -237 -211 -15 -4 -39 -19 -52 -35 -31 -36 -123 -88 -186 -105 -48 -12 -49 -12 -62 14 -10 18 -16 83 -19 206 l-5 180 -47 24 -48 23 0 87 c0 47 3 95 6 106 3 12 25 31 49 44 53 28 55 37 55 227 l0 144 41 83 c57 112 150 246 235 337 l70 75 34 -19 c34 -20 41 -20 245 -12 87 4 162 23 170 45 10 23 21 -10 46 -128z m-1131 -286 c63 -26 145 -59 183 -73 l67 -27 0 -115 c0 -63 -4 -120 -8 -127 -6 -9 -68 12 -230 75 l-222 87 0 132 0 131 48 -19 c26 -10 99 -39 162 -64z m2818 -44 c53 -27 111 -76 155 -129 21 -26 45 -55 52 -64 8 -10 14 -18 12 -18 -2 0 -61 24 -132 53 l-130 54 -3 61 c-2 34 0 62 3 62 3 0 22 -9 43 -19z m-2933 -218 c39 -13 84 -31 100 -39 17 -8 80 -35 140 -59 105 -42 132 -62 80 -58 -13 1 -113 37 -222 81 -146 58 -199 83 -202 97 -2 14 1 16 15 10 11 -4 51 -18 89 -32z m3005 -3 c47 -16 105 -40 130 -53 l45 -22 0 -112 c0 -61 -3 -115 -7 -119 -4 -4 -72 19 -151 50 l-144 56 -1 78 c-3 110 6 165 27 158 9 -2 54 -19 101 -36z m-1685 -453 l-7 -394 -102 -85 c-228 -190 -401 -298 -606 -378 -136 -53 -211 -68 -396 -82 -139 -10 -164 -9 -308 11 -138 20 -319 60 -333 75 -3 2 -2 193 3 423 l7 418 23 -68 c25 -74 103 -227 116 -227 4 0 8 -5 8 -10 0 -8 57 -65 161 -162 34 -32 161 -89 228 -104 236 -50 486 26 731 223 173 139 351 407 441 665 18 53 35 95 38 93 2 -2 0 -181 -4 -398z m1952 -20 c-3 -21 -8 -41 -11 -44 -3 -3 -45 10 -93 29 -49 19 -133 53 -188 75 l-100 39 -3 51 -3 51 202 -81 201 -81 -5 -39z m-3282 72 c28 -12 106 -43 175 -69 69 -26 140 -54 158 -61 l32 -13 0 -116 c0 -63 -4 -120 -8 -127 -8 -13 -128 29 -342 119 l-105 44 -3 119 c-3 135 0 150 25 136 10 -5 41 -19 68 -32z m1990 -161 c72 -28 166 -65 210 -82 74 -29 80 -34 83 -63 3 -32 -29 -119 -60 -162 l-17 -25 -193 76 c-106 42 -214 83 -240 93 l-46 17 33 47 c37 52 65 113 65 143 0 15 5 18 18 14 9 -4 76 -29 147 -58z m1183 -81 c13 -10 17 -197 6 -256 -8 -37 3 -39 -176 31 l-128 50 0 118 c0 64 3 131 6 147 l6 30 136 -55 c76 -30 143 -59 150 -65z m346 -53 c61 -25 117 -52 124 -59 19 -18 18 -94 -2 -133 -9 -18 -31 -40 -49 -48 -31 -15 -37 -14 -200 46 l-167 62 0 89 c0 88 0 90 28 100 15 6 34 15 42 19 16 8 33 2 224 -76z m-1871 2 c4 -9 -16 -29 -56 -57 -34 -24 -143 -104 -242 -179 -99 -75 -223 -165 -275 -201 -128 -89 -431 -242 -447 -226 -2 2 25 14 59 27 35 13 79 33 98 45 19 12 60 35 90 50 79 40 258 168 384 277 79 67 346 261 382 277 1 1 4 -5 7 -13z m806 -52 c104 -39 342 -133 352 -140 10 -6 -8 -93 -33 -157 -17 -41 -27 -57 -38 -53 -37 12 -236 88 -347 133 -102 42 -120 52 -109 64 21 23 66 134 66 163 0 14 3 26 6 26 3 0 50 -16 103 -36z m-649 -38 c63 -24 144 -56 180 -71 36 -15 93 -38 127 -50 l62 -21 -107 -97 c-146 -131 -303 -248 -452 -339 -147 -89 -181 -107 -298 -154 -377 -153 -707 -189 -1032 -112 -80 19 -342 107 -420 142 l-35 16 45 -8 c25 -4 133 -7 240 -6 228 1 338 19 535 87 222 76 408 187 735 436 209 160 291 220 300 221 3 0 57 -20 120 -44z m1211 -166 c159 -60 152 -46 79 -181 -34 -63 -80 -138 -102 -167 -66 -85 -200 -205 -285 -255 -131 -77 -118 -75 -227 -31 -53 20 -93 41 -89 44 5 4 53 41 108 82 122 92 206 179 270 278 58 90 92 169 101 238 5 43 9 49 23 42 9 -5 64 -28 122 -50z m-536 -95 c121 -48 224 -90 229 -95 16 -15 -115 -171 -204 -242 -299 -239 -612 -397 -925 -467 -362 -80 -644 -55 -1015 91 l-136 53 196 1 c194 0 353 17 465 48 70 19 282 99 368 139 200 93 477 286 675 472 57 53 109 94 115 92 7 -3 111 -44 232 -92z m-2970 -286 c89 -32 287 -79 395 -93 61 -9 80 -14 54 -15 -87 -2 -407 69 -479 107 -51 27 -44 27 30 1z"/>
 <path d="M1675 4994 c-27 -8 -64 -16 -81 -18 -121 -17 -194 -65 -194 -127 0 -33 35 -104 64 -131 26 -25 53 -23 196 16 112 31 128 38 156 70 51 59 58 128 18 175 -22 26 -33 31 -67 30 -23 0 -64 -7 -92 -15z"/>
 <path d="M1795 1968 c-59 -34 -105 -114 -105 -183 0 -156 176 -188 248 -45 31 62 31 154 -1 201 -20 30 -28 34 -72 36 -28 2 -59 -2 -70 -9z m49 -44 c-38 -18 -73 -87 -83 -165 -7 -53 -8 -53 -19 -26 -15 36 -15 55 0 98 21 63 69 108 113 108 15 1 12 -3 -11 -15z m61 -150 c-8 -20 -15 -38 -15 -39 0 -2 -11 -10 -25 -19 -25 -17 -26 -16 -40 18 -8 20 -15 38 -15 40 0 5 84 34 103 35 4 1 0 -15 -8 -35z"/>
 </g>

</svg>