<?xml version="1.0" standalone="no"?>
<!DOCTYPE svg PUBLIC "-//W3C//DTD SVG 20010904//EN"
 "http://www.w3.org/TR/2001/REC-SVG-20010904/DTD/svg10.dtd">
<svg version="1.0" xmlns="http://www.w3.org/2000/svg"
 width="450.000000pt" height="295.000000pt" viewBox="0 0 450.000000 295.000000"
 preserveAspectRatio="xMidYMid meet">
<g transform="translate(0.000000,295.000000) scale(0.100000,-0.100000)"
fill="#000000" stroke="none">
<path d="M2550 2933 c-388 -41 -727 -240 -954 -556 l-55 -78 45 -90 45 -91 49
83 c66 109 116 172 197 250 356 341 890 416 1325 187 271 -144 482 -405 564
-698 15 -52 33 -102 41 -111 8 -9 40 -26 71 -38 96 -35 183 -92 268 -176 95
-95 160 -199 199 -321 29 -91 49 -114 100 -114 47 0 55 15 55 103 0 74 -3 87
-45 174 -25 52 -65 123 -89 157 -86 120 -238 246 -368 305 l-60 28 -27 84
c-131 407 -469 733 -886 854 -148 43 -340 63 -475 48z"/>
<path d="M865 2532 c-16 -11 -38 -28 -47 -38 -9 -11 -110 -197 -224 -414 -113
-217 -252 -483 -309 -590 -267 -508 -285 -545 -285 -591 0 -61 34 -117 89
-146 l44 -23 810 0 c801 0 811 0 854 21 57 28 86 70 91 134 5 59 11 45 -233
510 -173 330 -328 626 -469 896 -58 111 -111 200 -132 220 -30 29 -42 33 -97
37 -48 2 -69 -1 -92 -16z m140 -527 l25 -24 0 -287 c0 -282 0 -288 -22 -311
-14 -15 -33 -23 -54 -23 -90 0 -94 13 -94 340 l0 272 29 29 c38 37 82 39 116
4z m3 -789 c90 -49 76 -188 -22 -225 -33 -13 -44 -13 -79 0 -133 46 -102 239
38 238 22 0 50 -5 63 -13z"/>
<path d="M2643 1398 c-13 -15 -24 -50 -32 -98 -16 -100 -79 -227 -177 -355
-193 -252 -240 -353 -232 -495 4 -63 11 -92 37 -145 59 -118 180 -214 316
-250 78 -20 226 -19 296 1 140 42 259 136 315 249 27 55 29 69 29 171 0 110 0
111 -42 195 -23 46 -93 152 -154 234 -122 163 -183 276 -200 370 -6 33 -13 70
-15 83 -11 60 -100 85 -141 40z"/>
<path d="M3835 1395 c-17 -16 -25 -35 -25 -57 0 -109 -57 -225 -215 -438 -63
-85 -132 -189 -152 -230 -38 -74 -38 -76 -38 -195 0 -112 2 -123 28 -174 125
-237 442 -331 709 -209 64 29 167 122 201 181 34 57 57 140 57 201 0 117 -46
214 -198 419 -54 73 -112 155 -128 182 -45 73 -83 174 -90 241 -5 41 -14 65
-30 81 -32 32 -87 31 -119 -2z"/>
<path d="M1070 402 c0 -16 131 -118 213 -165 151 -87 349 -133 542 -126 77 4
89 7 106 28 24 30 24 81 0 108 -16 17 -36 21 -154 27 -166 8 -263 31 -382 91
l-90 45 -118 0 c-64 0 -117 -4 -117 -8z"/>
</g>
</svg>
